<?xml version="1.0" encoding="UTF-8" standalone="no"?>
<svg
   xmlns:dc="http://purl.org/dc/elements/1.1/"
   xmlns:cc="http://creativecommons.org/ns#"
   xmlns:rdf="http://www.w3.org/1999/02/22-rdf-syntax-ns#"
   xmlns:svg="http://www.w3.org/2000/svg"
   xmlns="http://www.w3.org/2000/svg"
   xmlns:sodipodi="http://sodipodi.sourceforge.net/DTD/sodipodi-0.dtd"
   xmlns:inkscape="http://www.inkscape.org/namespaces/inkscape"
   version="1.1"
   x="0px"
   y="0px"
   viewBox="0 0 100 100"
   enable-background="new 0 0 100 100"
   xml:space="preserve"
   id="svg6"
   sodipodi:docname="icon.svg"
   inkscape:export-filename="/media/michael/SData/TUGraz/PhD/JSPermission/js_permissions/experiments/extension-poc/icon16.png"
   inkscape:export-xdpi="15.36"
   inkscape:export-ydpi="15.36"
   inkscape:version="0.92.1 r15371"><metadata
     id="metadata12"><rdf:RDF><cc:Work
         rdf:about=""><dc:format>image/svg+xml</dc:format><dc:type
           rdf:resource="http://purl.org/dc/dcmitype/StillImage" /></cc:Work></rdf:RDF></metadata><defs
     id="defs10" /><sodipodi:namedview
     pagecolor="#ffffff"
     bordercolor="#666666"
     borderopacity="1"
     objecttolerance="10"
     gridtolerance="10"
     guidetolerance="10"
     inkscape:pageopacity="0"
     inkscape:pageshadow="2"
     inkscape:window-width="1920"
     inkscape:window-height="1015"
     id="namedview8"
     showgrid="false"
     inkscape:zoom="1.668772"
     inkscape:cx="65.573849"
     inkscape:cy="88.800208"
     inkscape:window-x="0"
     inkscape:window-y="0"
     inkscape:window-maximized="1"
     inkscape:current-layer="g4" /><g
     id="g4"
     transform="matrix(1.3294936,0,0,1.3294936,-15.643684,-16.475011)"><path
       d="m 50.72,13.993 c -0.3,0 -0.54,0.18 -0.66,0.42 -4.56,8.52 -15.84,13.08 -28.92,12.66 -0.48,0 -0.84,0.36 -0.84,0.84 0,9.42 1.08,17.34 3,24 1.631785,5.336532 0,0 1.56,4.861 0.431628,1.162074 0.881628,2.287402 1.360169,3.375815 0.005,0.01134 0.01,0.02268 0.01497,0.03401 0.381725,0.86652 0.781633,1.709609 1.204865,2.529179 2.968736,5.123448 -0.150458,-0.267382 2.58,4.501 5.76,8.939 13.26,14.4 20.34,18.66 0.24,0.18 0.54,0.18 0.78,0 7.08,-4.26 14.64,-9.721 20.34,-18.66 5.76,-8.939 9.72,-21.3 9.72,-39.3 0,-0.48 -0.359,-0.84 -0.84,-0.84 -13.08,0.42 -24.359,-4.14 -28.92,-12.66 -0.12,-0.241 -0.419,-0.421 -0.72,-0.421 z"
       id="path2"
       inkscape:connector-curvature="0"
       style="fill:#ffffff;stroke:#000000;stroke-width:2.25649834;stroke-miterlimit:4;stroke-dasharray:none"
       sodipodi:nodetypes="sccsccsscccccsccs" /><path
       d="m 51.32619,20.04698 c -0.42,0 -0.78,0.36 -0.78,0.78 v 20.339999 c 0.0435,3.566964 -0.0766,3.312154 0,6.12 v 3.42 c 0.11802,4.391065 0.0614,4.513486 0,7.381001 v 3.42 c -0.0281,3.940159 -0.006,4.450587 0,6.061 v 12.18 c 0,0.6 0.72,1.02 1.201,0.659999 5.88,-3.541 12.12,-8.159999 16.86,-15.659999 4.8,-7.5 8.04,-17.88 8.04,-32.940001 0,-0.48 -0.36,-0.839999 -0.78,-0.839999 -10.8,0.359999 -20.04,-3.48 -23.82,-10.5 -0.121,-0.301 -0.42,-0.422 -0.721,-0.422 z"
       id="path2-1"
       inkscape:connector-curvature="0"
       style="fill:#808080;stroke-width:1"
       sodipodi:nodetypes="ssccccccsccsccs" /><g
       id="g4682"
       transform="translate(-80.455357,-15.77556)"
       style="fill:#aa0000;stroke:#000000"><path
         sodipodi:nodetypes="sccsssscsssccccss"
         style="fill:#aa0000;stroke:#000000;stroke-width:1"
         inkscape:connector-curvature="0"
         id="path2-6-4-2"
         d="m 120.83894,49.091231 c -0.36,0 -0.66,0.18 -0.78,0.48 -0.72001,1.98 -1.44,4.08 -2.04,5.88 -0.54001,1.8 -0.9,3.3 -0.9,4.32 0,2.039999 1.68,3.72 3.72,3.72 2.04,0 3.72,-1.680001 3.72,-3.72 0,-1.02 -0.42,-2.52 -0.96,-4.32 -0.54,-1.8 -1.26001,-3.9 -2.04001,-5.88 -0.11999,-0.3 -0.41999,-0.48 -0.71999,-0.48 z m 0,27.121 c -2.04,0 -3.72,1.68 -3.72,3.779 0,1.02 0.35999,2.52 0.9,4.319999 0.6,1.799 1.31999,3.900001 2.04,5.879 0.3,0.660001 1.26,0.660001 1.49999,0 0.78,-1.978999 1.50001,-4.08 2.04001,-5.879 0.54,-1.800999 0.96,-3.300999 0.96,-4.319999 0,-2.1 -1.68,-3.779 -3.72,-3.779 z" /><path
         sodipodi:nodetypes="sccsssscsssccccss"
         style="fill:#aa0000;stroke:#000000;stroke-width:1"
         inkscape:connector-curvature="0"
         id="path2-6-4-2-2"
         d="m 141.64038,69.692024 c 0,-0.36 -0.18,-0.66 -0.48,-0.78 -1.98,-0.72001 -4.08,-1.44 -5.88,-2.04 -1.8,-0.54001 -3.3,-0.9 -4.32,-0.9 -2.04,0 -3.72,1.68 -3.72,3.72 0,2.04 1.68,3.72 3.72,3.72 1.02,0 2.52,-0.42 4.32,-0.96 1.8,-0.54 3.9,-1.26001 5.88,-2.04001 0.3,-0.11999 0.48,-0.41999 0.48,-0.71999 z m -27.121,0 c 0,-2.04 -1.68,-3.72 -3.779,-3.72 -1.02,0 -2.52,0.35999 -4.32,0.9 -1.799,0.6 -3.9,1.31999 -5.879,2.04 -0.660003,0.3 -0.660003,1.26 0,1.49999 1.979,0.78 4.08,1.50001 5.879,2.04001 1.801,0.54 3.301,0.96 4.32,0.96 2.1,0 3.779,-1.68 3.779,-3.72 z" /><path
         sodipodi:nodetypes="ssccccsss"
         style="fill:#aa0000;stroke:#000000;stroke-width:0.61174554"
         inkscape:connector-curvature="0"
         id="path2-6-4-2-2-8-3"
         d="m 112.83019,62.033975 c 0.88244,-0.88244 0.88244,-2.33587 -0.0255,-3.24383 -0.44123,-0.44123 -1.24581,-0.93437 -2.25801,-1.47939 -1.03775,-0.51865 -2.25802,-1.11604 -3.42553,-1.66064 -0.41526,-0.15573 -0.83053,0.25954 -0.64885,0.64885 0.51865,1.19345 1.11602,2.41374 1.66064,3.42553 0.54547,1.01264 1.01264,1.84318 1.45343,2.28397 0.90838,0.90838 2.36139,0.90795 3.24384,0.0255 z" /><path
         sodipodi:nodetypes="ssccccsss"
         style="fill:#aa0000;stroke:#000000;stroke-width:0.61174554"
         inkscape:connector-curvature="0"
         id="path2-6-4-2-2-8-3-8"
         d="m 128.90325,77.364269 c -0.88244,0.88244 -0.88244,2.33587 0.0255,3.24383 0.44123,0.44123 1.24581,0.93437 2.25801,1.47939 1.03775,0.51865 2.25802,1.11604 3.42553,1.66064 0.41526,0.15573 0.83053,-0.25954 0.64885,-0.64885 -0.51865,-1.19345 -1.11602,-2.41374 -1.66064,-3.42553 -0.54547,-1.01264 -1.01264,-1.84318 -1.45343,-2.28397 -0.90838,-0.90838 -2.36139,-0.90795 -3.24384,-0.0255 z" /><path
         sodipodi:nodetypes="ssccccsss"
         style="fill:#aa0000;stroke:#000000;stroke-width:0.61174554"
         inkscape:connector-curvature="0"
         id="path2-6-4-2-2-8-3-7"
         d="m 128.39585,61.54281 c 0.88244,0.88244 2.33587,0.88244 3.24383,-0.0255 0.44123,-0.44123 0.93437,-1.24581 1.47939,-2.25801 0.51865,-1.03775 1.11604,-2.25802 1.66064,-3.42553 0.15573,-0.41526 -0.25954,-0.83053 -0.64885,-0.64885 -1.19345,0.51865 -2.41374,1.11602 -3.42553,1.66064 -1.01264,0.54547 -1.84318,1.01264 -2.28397,1.45343 -0.90838,0.90838 -0.90795,2.36139 -0.0255,3.24384 z" /><path
         sodipodi:nodetypes="ssccccsss"
         style="fill:#aa0000;stroke:#000000;stroke-width:0.61174554"
         inkscape:connector-curvature="0"
         id="path2-6-4-2-2-8-3-8-4"
         d="m 113.06556,77.615868 c -0.88244,-0.882438 -2.33587,-0.882438 -3.24383,0.0255 -0.44123,0.44124 -0.93437,1.24582 -1.47939,2.25802 -0.51865,1.03775 -1.11604,2.25801 -1.66064,3.42552 -0.15573,0.41527 0.25954,0.83054 0.64885,0.64885 1.19345,-0.51865 2.41374,-1.11601 3.42553,-1.66063 1.01264,-0.54547 1.84318,-1.01264 2.28397,-1.45343 0.90837,-0.90838 0.90794,-2.36139 0.0255,-3.24384 z" /></g></g></svg>