<svg xmlns="http://www.w3.org/2000/svg" xmlns:xlink="http://www.w3.org/1999/xlink" version="1.1" x="0px" y="0px" viewBox="0 0 100 100" enable-background="new 0 0 100 100" xml:space="preserve"><path d="M50,52.7c-9.9,0-18-8.1-18-18s8.1-18,18-18s18,8.1,18,18S59.9,52.7,50,52.7z M50,23.8c-6,0-10.9,4.9-10.9,10.9  S44,45.6,50,45.6s10.9-4.9,10.9-10.9S56,23.8,50,23.8z"></path><path d="M74.3,64.6L50,82.2L25.7,64.6c5.1-4.8,14.1-8,24.3-8C60.2,56.6,69.2,59.8,74.3,64.6z"></path><path d="M50,95.3c-0.7,0-1.5-0.2-2.1-0.7L4,62.7c-1.2-0.9-1.8-2.5-1.3-4L19.5,7.1c0.5-1.5,1.8-2.4,3.4-2.4h54.3c1.5,0,2.9,1,3.4,2.4  l16.8,51.7c0.5,1.5,0,3.1-1.3,4l-44,31.9C51.5,95.1,50.7,95.3,50,95.3z M10.2,58.5L50,87.4l39.8-28.9L74.6,11.7H25.4L10.2,58.5z"></path></svg>